<svg width="195" height="77" viewBox="0 0 195 77" fill="none" xmlns="http://www.w3.org/2000/svg">
<path d="M107.467 49.5185H103.312V67.7602H107.467V53.4144H112.714V49.5185H107.467ZM96.3156 50.1375C95.0037 49.3364 93.5096 48.9359 91.8697 48.9359C88.8451 48.9359 86.6586 50.0282 85.3102 52.2129L85.2738 49.5185H81.3745V76.6444H85.5289V65.3935C86.1484 66.3402 86.9865 67.1048 88.0798 67.6146C89.1366 68.1243 90.3392 68.3792 91.6875 68.3792C93.3639 68.3792 94.8944 67.9423 96.2792 67.032C97.6276 66.1217 98.6844 64.9566 99.4496 63.4637C100.215 62.0073 100.579 60.4053 100.579 58.6575C100.579 56.7278 100.215 55.0165 99.4496 53.5601C98.6844 52.0672 97.6275 50.9385 96.3156 50.1375ZM94.8215 62.954C93.8012 64.0463 92.4528 64.6289 90.8494 64.6289C89.2459 64.6289 87.8976 64.0827 86.8772 62.954C85.8569 61.8617 85.3102 60.4053 85.3102 58.6575C85.3102 56.9098 85.8204 55.4534 86.8408 54.3247C87.8612 53.1959 89.2095 52.6498 90.8494 52.6498C92.4893 52.6498 93.8376 53.1959 94.858 54.3247C95.8783 55.4534 96.3885 56.8734 96.3885 58.6575C96.3885 60.4053 95.8783 61.8617 94.8215 62.954ZM192.413 45.2948C193.178 45.2948 193.797 45.04 194.271 44.5666C194.781 44.0569 195 43.4379 195 42.7097C195 41.9451 194.745 41.3625 194.271 40.8527C193.761 40.3794 193.141 40.1245 192.413 40.1245C191.647 40.1245 191.028 40.3794 190.554 40.8527C190.044 41.3261 189.825 41.9451 189.825 42.7097C189.825 43.4743 190.08 44.0933 190.554 44.5666C191.028 45.04 191.647 45.2948 192.413 45.2948ZM190.335 67.7602H194.49V49.5185H190.335V67.7602ZM181.917 52.0308C181.298 51.0477 180.423 50.2831 179.366 49.7369C178.273 49.1908 177.071 48.9359 175.722 48.9359C174.046 48.9359 172.515 49.3728 171.131 50.2831C169.782 51.1934 168.725 52.3585 167.96 53.8513C167.195 55.3078 166.831 56.9098 166.831 58.6575C166.831 60.5873 167.195 62.2986 167.96 63.755C168.725 65.2115 169.746 66.3402 171.058 67.1412C172.37 67.9423 173.864 68.3428 175.504 68.3428C178.455 68.3428 180.569 67.3233 181.917 65.2843V66.8863C181.917 69.071 181.407 70.7095 180.387 71.729C179.366 72.7485 177.763 73.2946 175.577 73.2946C174.447 73.2946 173.317 73.149 172.224 72.8577C171.131 72.5664 170.183 72.1659 169.381 71.6561L168.908 75.4793C169.673 75.8798 170.693 76.2439 172.005 76.5352C173.317 76.8265 174.593 76.9721 175.832 76.9721C179.184 76.9721 181.699 76.0982 183.412 74.3505C185.124 72.6028 185.962 70.0177 185.962 66.5951V49.5185H181.954L181.917 52.0308ZM180.569 62.954C179.549 64.0827 178.2 64.6289 176.56 64.6289C174.921 64.6289 173.572 64.0827 172.552 62.954C171.531 61.8253 171.021 60.4053 171.021 58.6211C171.021 56.8734 171.531 55.417 172.588 54.3247C173.609 53.2324 174.957 52.6498 176.56 52.6498C178.164 52.6498 179.512 53.1959 180.533 54.3247C181.553 55.417 182.1 56.8734 182.1 58.6211C182.1 60.3688 181.589 61.8253 180.569 62.954ZM128.202 50.1375C126.745 49.3364 125.105 48.9359 123.319 48.9359C121.46 48.9359 119.784 49.3728 118.29 50.2831C116.796 51.157 115.63 52.3585 114.828 53.8149C113.99 55.2714 113.589 56.8734 113.589 58.6211C113.589 60.5145 114.026 62.1894 114.901 63.6822C115.776 65.175 116.942 66.3402 118.436 67.1412C119.893 67.9423 121.533 68.3428 123.319 68.3428C125.178 68.3428 126.854 67.9058 128.348 66.9956C129.842 66.1217 131.008 64.9202 131.81 63.4637C132.612 62.0073 133.049 60.3688 133.049 58.6211C133.049 56.7278 132.612 55.0529 131.737 53.5601C130.862 52.1036 129.66 50.9385 128.202 50.1375ZM127.328 62.954C126.307 64.0827 124.959 64.6289 123.319 64.6289C121.679 64.6289 120.331 64.0827 119.31 62.954C118.29 61.8253 117.78 60.4053 117.78 58.6211C117.78 56.8734 118.29 55.417 119.347 54.3247C120.367 53.2324 121.716 52.6498 123.319 52.6498C124.922 52.6498 126.271 53.1959 127.291 54.3247C128.312 55.417 128.858 56.8734 128.858 58.6211C128.858 60.3688 128.348 61.8253 127.328 62.954ZM159.141 67.7602H163.296V49.5185H159.141V67.7602ZM150.322 51.9216C149.703 50.9749 148.828 50.2103 147.771 49.7005C146.715 49.1908 145.512 48.9359 144.164 48.9359C142.487 48.9359 140.957 49.3728 139.572 50.2831C138.224 51.1934 137.167 52.3585 136.402 53.8513C135.636 55.3078 135.272 56.9098 135.272 58.6575C135.272 60.5873 135.636 62.2986 136.402 63.755C137.167 65.2115 138.187 66.3402 139.499 67.1412C140.811 67.9423 142.305 68.3428 143.945 68.3428C146.897 68.3428 149.01 67.3233 150.359 65.2843L150.432 67.7966H154.44V38.5225H150.286V51.9216H150.322ZM149.01 62.954C147.99 64.0827 146.642 64.6289 145.002 64.6289C143.362 64.6289 142.014 64.0827 140.993 62.954C139.973 61.8253 139.463 60.4053 139.463 58.6211C139.463 56.8734 139.973 55.417 141.03 54.3247C142.05 53.2324 143.398 52.6498 145.002 52.6498C146.605 52.6498 147.954 53.1959 148.974 54.3247C149.994 55.417 150.541 56.8734 150.541 58.6211C150.541 60.3688 150.031 61.8253 149.01 62.954ZM161.218 40.1245C160.453 40.1245 159.834 40.3794 159.36 40.8527C158.85 41.3261 158.631 41.9451 158.631 42.7097C158.631 43.4743 158.886 44.0933 159.36 44.5666C159.87 45.0764 160.49 45.2948 161.218 45.2948C161.984 45.2948 162.603 45.04 163.077 44.5666C163.587 44.0569 163.806 43.4379 163.806 42.7097C163.806 41.9451 163.551 41.3625 163.077 40.8527C162.567 40.343 161.947 40.1245 161.218 40.1245ZM0 76.6444H27.1127V49.5549H54.2254V0H0V76.6444ZM54.2254 76.6444V49.5549L27.1127 76.6444H54.2254Z" fill="white"/>
</svg>
